# xmcd
#
# Track frame offsets:
#	150
#	3928
#	15094
#	32441
#	49397
#	70117
#	95945
#	113029
#	134335
#	162435
#	179534
#	202026
#	217766
#	234047
#	268201
#
# Disc length: 3879 seconds
#
# Revision: 0
# Processed by: cddbd v1.4PL0 Copyright (c) Steve Scherf et al.
# Submitted via: dBpowerAMP V4.0
#
DISCID=c60f250f
DTITLE=Eric Clapton - Unplugged (DVD)
DYEAR=1992
DGENRE=Blues
TTITLE0=Intro
TTITLE1=Signe
TTITLE2=Before You Acuse Me
TTITLE3=Hey Hey
TTITLE4=Tears in Heaven
TTITLE5=Lonely Stranger
TTITLE6=Nobody Knows you when you're Down
TTITLE7=Layla
TTITLE8=Running on Faith
TTITLE9=Walkin' Blues
TTITLE10=Alberta
TTITLE11=San Francisco Bay Blues
TTITLE12=Malted Milk
TTITLE13=Old Love
TTITLE14=Rollin' and Tumblin'
EXTD=Extract from the DVD Version of Eric Clapton's unplugged
EXTT0=
EXTT1=
EXTT2=
EXTT3=
EXTT4=
EXTT5=
EXTT6=
EXTT7=
EXTT8=
EXTT9=
EXTT10=
EXTT11=
EXTT12=
EXTT13=
EXTT14=
PLAYORDER=
